<svg width="163" height="99" viewBox="0 0 163 99" fill="none" xmlns="http://www.w3.org/2000/svg">
<path d="M10.2352 21.951C10.1726 21.7012 10.2712 21.4941 10.5195 21.4449C10.7436 21.3891 10.9764 21.3783 11.2047 21.4132C11.4329 21.4481 11.652 21.528 11.8491 21.6482C12.5995 22.0539 13.4157 22.2948 14.1909 22.6308C14.9678 22.97 15.7204 23.3599 16.4803 23.7353C17.2571 24.1189 18.0289 24.5092 18.7992 24.9046C19.3731 25.202 19.9381 25.5105 20.5087 25.8096C21.2733 26.2143 22.0484 26.6029 22.8098 27.0177C23.3242 27.3018 23.8191 27.6214 24.3239 27.9275C24.5415 28.0544 24.7005 28.2181 24.7057 28.4913C24.7103 28.5651 24.7267 28.6376 24.7543 28.7061C25.0787 29.54 25.1533 30.428 25.2802 31.2993C25.3654 31.8858 25.3586 31.8946 25.0161 32.3328C25.006 32.3457 25.0002 32.3616 25.0008 32.378C25.008 32.5682 25.1315 32.6991 25.2654 32.813C25.448 32.9726 25.5638 33.1952 25.5897 33.4363C25.8254 34.8323 26.0595 36.2334 26.3128 37.6267C26.4658 38.4591 26.6422 39.2878 26.8361 40.1137C27.171 41.5466 27.6133 42.9552 27.9058 44.3997C28.0705 45.2302 28.256 46.0563 28.4449 46.8806C28.5097 47.167 28.607 47.4471 28.6893 47.7308C28.7998 48.1009 28.9069 48.4727 29.0207 48.8411C29.0569 48.9634 29.1023 49.083 29.1469 49.2051C29.2405 49.4619 29.3317 49.7261 29.4344 49.9802C29.5024 50.1513 29.5811 50.3146 29.6648 50.4796C29.8037 50.7506 30.0101 50.8518 30.3336 50.8541C30.7001 50.8546 31.0651 50.8077 31.4195 50.7145C32.0604 50.5537 32.7135 50.4244 33.3624 50.2911C33.6681 50.2268 33.974 50.1792 34.2617 50.0316C34.5494 49.899 34.8718 49.861 35.1826 49.9231C35.2817 49.9411 35.3839 49.9318 35.4781 49.8961C35.5724 49.8604 35.6551 49.7997 35.7175 49.7206C35.7418 49.6942 35.7673 49.669 35.794 49.645C36.2114 49.3056 36.4095 48.8971 36.296 48.3348C36.204 47.8707 36.2262 47.379 36.1442 46.9098C36.0779 46.5314 35.9474 46.1633 35.822 45.7968C35.5396 44.979 35.2415 44.1673 34.9559 43.3512C34.9059 43.2108 34.846 43.0672 34.8403 42.9269C34.8138 42.3172 34.4896 41.8076 34.301 41.2549C34.2484 41.1053 34.1119 40.9847 34.0079 40.8577C33.8493 40.6663 33.7358 40.4642 33.7692 40.2088C33.7751 40.1335 33.7711 40.0576 33.7572 39.9833C33.652 39.3683 33.9242 39.2519 34.3361 38.9828C34.4476 38.9165 34.5781 38.8894 34.7067 38.9058C35.0495 38.9612 35.3902 39.0493 35.7258 39.1275C35.8868 39.1616 36.045 39.2309 36.205 39.2509C36.5009 39.2724 36.7838 39.3809 37.0182 39.5628C37.1066 39.6291 37.2106 39.6715 37.3202 39.6858C37.7595 39.769 38.1626 39.9405 38.5643 40.1337C38.7109 40.2049 38.876 40.2348 39.0349 40.2933C39.2897 40.3903 39.5559 40.4687 39.7979 40.5977C40.0222 40.7211 40.2416 40.8512 40.4692 40.9729C40.7448 41.118 41.0148 41.2724 41.3226 41.3418C41.3587 41.3505 41.3998 41.3607 41.4278 41.3861C41.6901 41.6351 41.9253 41.9171 42.2171 42.1339C42.256 42.16 42.2613 42.2309 42.2714 42.2868C42.3671 42.8268 42.4927 43.3596 42.5309 43.9148C42.5844 44.6853 42.5902 45.4574 42.631 46.224C42.671 46.9404 42.7594 47.6528 42.8187 48.3698C42.864 48.9022 42.9094 49.4346 42.9323 49.9682C42.949 50.3808 43.0479 50.7612 43.2144 51.1379C43.2735 51.2935 43.3745 51.4297 43.5063 51.5315C43.638 51.6332 43.7954 51.6964 43.9609 51.7142C44.1251 51.7382 44.2911 51.774 44.4535 51.7864C45.5425 51.8916 46.5904 52.1973 47.63 52.5031C47.9315 52.5926 48.2273 52.6915 48.5288 52.781C48.6514 52.8185 48.778 52.8417 48.906 52.8501C49.2187 52.8601 49.3814 52.7396 49.4768 52.4372C49.5317 52.2615 49.5726 52.0817 49.5993 51.8995C49.6586 51.5359 49.707 51.1715 49.7504 50.8056C49.7724 50.4555 49.8634 50.1132 50.0183 49.7984C50.136 49.5834 50.0872 49.3602 50.0129 49.1566C49.9159 48.8958 49.9049 48.6107 49.9813 48.3431C50.1108 47.8713 50.0411 47.3894 50.061 46.9136C50.0578 46.7294 50.0203 46.5475 49.9504 46.3771C49.8961 46.21 49.8767 46.0336 49.8933 45.8587C49.9099 45.6838 49.9621 45.5141 50.0467 45.3601C50.18 45.0725 50.4442 44.847 50.7597 44.8155C50.7765 44.8138 50.7933 44.8124 50.8101 44.8113C51.0221 44.7978 51.2203 44.8548 51.3198 45.0663C51.4244 45.2794 51.5992 45.34 51.8127 45.3658C52.0539 45.392 52.2473 45.5168 52.4566 45.6438C52.8617 45.8879 53.3173 46.051 53.617 46.4448C53.6264 46.4589 53.6491 46.466 53.665 46.4683C54.1133 46.5404 54.2374 46.8761 54.3004 47.2561C54.31 47.3165 54.3887 47.3391 54.4498 47.3396C54.527 47.3402 54.6121 47.3414 54.6988 47.3458C54.8185 47.3429 54.9372 47.3667 55.0465 47.4155C55.1557 47.4644 55.2526 47.537 55.3302 47.6281C55.4452 47.7641 55.5991 47.8736 55.747 47.9757C56.0312 48.1817 56.3349 48.3607 56.6042 48.5786C56.8143 48.7557 56.9916 48.9668 57.173 49.1737C57.2192 49.2316 57.2453 49.3031 57.2473 49.3772C57.2632 49.687 57.2874 49.9967 57.177 50.3027C57.045 50.6683 56.9542 51.0442 56.8373 51.4147C56.6253 52.1043 56.4896 52.8068 56.4369 53.5272C56.4227 53.7832 56.3465 54.0335 56.2921 54.2851C56.1537 54.9258 56.4107 55.4724 57.0182 55.725C58.1255 56.1852 59.2028 56.7051 60.221 57.3422C60.2992 57.391 60.3815 57.4328 60.4671 57.4669C60.5594 57.5101 60.6624 57.5248 60.7631 57.5092C60.8637 57.4936 60.9575 57.4483 61.0323 57.3792C61.2598 57.2193 61.4327 56.9933 61.5274 56.7318C61.6269 56.3994 61.7936 56.1068 61.9639 55.8078L61.9744 55.7894C62.2411 55.3304 62.4369 54.8325 62.6614 54.3492C62.7172 54.2338 62.7366 54.0847 62.8238 54.0014C63.0874 53.7631 63.1825 53.444 63.2609 53.1251C63.3938 52.5697 64.1424 52.4422 64.6947 52.5876L64.8424 52.6265C64.8575 52.6313 64.8785 52.6351 64.8912 52.6474C65.4211 53.2262 66.1972 53.5878 66.7022 54.1885L66.7722 54.2704C67.0669 54.615 67.3628 54.9611 67.6481 55.3182C67.8519 55.5681 68.1274 55.7575 68.301 56.0506C68.5612 56.4818 68.7349 56.9411 68.8597 57.4238C68.8812 57.4951 68.885 57.5704 68.8708 57.6435C68.7542 58.0833 68.6613 58.5361 68.3091 58.8794C67.9775 59.2015 67.7145 59.5785 67.4938 59.9883C67.3998 60.1648 67.2791 60.3226 67.1561 60.4876C67.0732 60.5986 67.0552 60.7694 67.1611 60.8586C67.4468 61.1123 67.7384 61.3649 68.0275 61.6168C68.0402 61.6292 68.0604 61.6355 68.069 61.6521C68.1651 61.8043 68.2389 61.9745 68.3588 62.1037C68.4805 62.2363 68.6955 62.3014 68.7822 62.4479C69.035 62.8851 69.413 63.2066 69.7209 63.5919C69.9256 63.8476 70.0709 64.1512 70.2723 64.4086C70.5421 64.757 70.8366 65.0882 71.1245 65.4228C71.2779 65.6042 71.4601 65.7642 71.407 66.0467C71.3931 66.1172 71.4666 66.2179 71.5237 66.283C71.6185 66.3956 71.7296 66.4932 71.8535 66.5727C72.0168 66.6603 72.1409 66.8064 72.2011 66.9816C72.2369 67.0788 72.3185 67.1627 72.3826 67.2495C72.4159 67.2932 72.4924 67.3229 72.4964 67.3629C72.5363 67.7635 72.8609 67.9905 73.0464 68.2984L73.9526 69.809C73.9793 69.8562 74.0187 69.9157 74.0102 69.9602C73.9356 70.3634 74.2286 70.647 74.3435 70.9852C74.4505 71.2961 74.5941 71.5963 74.7285 71.8991L74.7317 71.9067C74.7716 72.0034 74.8148 72.1079 74.8878 72.1849C75.0849 72.4056 75.2014 72.6865 75.2183 72.9819C75.2413 73.1637 75.2967 73.3391 75.3522 73.5146C75.5048 74.006 75.6723 74.4939 75.8182 74.9888C75.8571 75.1108 75.8638 75.2409 75.8377 75.3663C75.8029 75.4677 75.7336 75.5538 75.6419 75.6093C75.5013 75.7008 75.3345 75.7436 75.1672 75.7309C75 75.7182 74.8415 75.6507 74.7164 75.539C74.4567 75.3339 74.2185 75.1028 74.0057 74.8493C73.3856 74.0746 72.796 73.2735 72.2337 72.456C71.9607 72.0651 71.7109 71.6538 71.3587 71.321C71.3307 71.2956 71.3183 71.2557 71.2888 71.2352C70.6215 70.7504 70.2245 70.0239 69.6609 69.4388C69.1269 68.8787 68.5579 68.3531 67.9573 67.8651C67.0825 67.1597 66.1849 66.4831 65.2913 65.8022C65.1553 65.7093 65.052 65.5758 64.996 65.4209C64.968 65.3256 64.934 65.2325 64.8943 65.1421C64.6985 64.697 64.1911 64.5132 63.7066 64.5542C63.4971 64.5684 63.3095 64.5481 63.1506 64.3843C63.0574 64.2963 62.9459 64.2299 62.824 64.1899C62.6291 64.1228 62.4481 64.0464 62.3323 63.8602C62.2962 63.7989 62.2324 63.7289 62.1728 63.7157C61.8919 63.6576 61.6875 63.4711 61.4489 63.3405C61.0491 63.1146 60.6217 62.941 60.2041 62.7539C59.9613 62.6629 59.7505 62.5026 59.598 62.2929C59.4454 62.0832 59.3578 61.8333 59.346 61.5743C59.3381 61.5025 59.3369 61.4274 59.3207 61.3557C59.245 61.016 59.0357 60.8364 58.6903 60.877C58.3242 60.9222 57.9653 61.0058 57.6055 61.0835C57.4448 61.1187 57.2887 61.183 57.1289 61.2241C56.8971 61.2856 56.6527 61.2823 56.4226 61.2146C55.6427 60.9991 54.8531 60.8054 54.0734 60.5982C53.8761 60.5471 53.6886 60.4741 53.4945 60.4129C53.3736 60.3747 53.2525 60.3282 53.1267 60.3052C52.2246 60.1259 51.3214 59.9324 50.4155 59.7824C49.6907 59.6646 48.9573 59.5829 48.2266 59.5186C47.0892 59.4175 45.9531 59.3473 44.8128 59.273C44.4464 59.2489 44.0787 59.2548 43.7131 59.3334C43.5191 59.3775 43.31 59.3642 43.1088 59.3783C42.5396 59.426 41.9694 59.4678 41.4018 59.5104C41.0529 59.5361 40.7052 59.5843 40.3584 59.5858C39.0849 59.5997 37.8232 59.7697 36.5641 59.9489C36.1639 60.0055 35.766 60.0546 35.3602 60.0762C35.0512 60.0895 34.7655 60.0465 34.5307 59.8422C34.4512 59.7655 34.3507 59.714 34.2419 59.6945C34.1331 59.675 34.0209 59.6883 33.9197 59.7326C33.7469 59.7972 33.5671 59.8403 33.3889 59.8783C33.1182 59.937 32.9184 60.0873 32.7885 60.3234C32.7079 60.4791 32.5901 60.6126 32.4457 60.712C32.3012 60.8114 32.1345 60.8737 31.9603 60.8934C31.6344 60.9513 31.3142 61.0443 30.9893 61.108C30.3379 61.2406 29.6924 61.3806 29.0801 61.6529C28.8801 61.7422 28.662 61.7925 28.4498 61.8503C27.8648 62.0094 27.273 62.1552 26.6872 62.3167C26.4413 62.4006 26.1731 62.391 25.9338 62.2897C25.8505 62.2551 25.7619 62.2022 25.6741 62.1994C25.3094 62.1786 25.1031 61.9805 25.0015 61.6437C24.9926 61.6104 24.9754 61.5773 24.9581 61.5441C24.4001 60.4211 24.0225 59.2173 23.839 57.9769C23.6774 56.9783 23.4159 55.998 23.1843 55.0106C22.8175 53.4679 22.4441 51.9286 22.0648 50.3903C21.9487 49.9251 21.8169 49.464 21.6697 49.0077C21.2235 47.5674 20.7672 46.124 20.3035 44.6865C20.209 44.4255 20.2053 44.1402 20.2929 43.8768C20.3288 43.7718 20.3496 43.662 20.3931 43.5593C20.7018 42.8531 20.3991 42.2755 20.004 41.7186C19.9441 41.636 19.829 41.5969 19.7409 41.5248C19.574 41.3862 19.3681 41.2659 19.2575 41.0897C18.9565 40.6321 18.6915 40.1499 18.4256 39.666L18.3944 39.6093C18.3058 39.4511 18.2611 39.268 18.1931 39.0969C18.1243 38.906 18.1125 38.6991 18.1592 38.5016C18.2502 38.0288 18.1708 37.613 17.7675 37.2752C17.5035 37.0428 17.2992 36.7503 17.172 36.4224C17.106 36.2713 17.0417 36.1153 16.9915 35.9581C16.4447 34.2921 15.7011 32.7054 15.0049 31.1004C14.9866 31.053 14.949 31.0051 14.9348 30.9536C14.6659 29.935 14.015 29.1173 13.5001 28.2289C13.2627 27.8132 12.9888 27.4164 12.7274 27.0153C12.5158 26.6937 12.3124 26.3635 12.2425 25.9701C12.2178 25.8628 12.174 25.7607 12.1131 25.6689C11.7979 25.1483 11.4754 24.6337 11.162 24.1164C10.9832 23.8134 10.8136 23.5078 10.6382 23.2031C10.621 23.1699 10.5954 23.1369 10.5923 23.1027C10.5614 22.6912 10.3334 22.3422 10.2352 21.951Z" fill="#B5B398"/>
<path fill-rule="evenodd" clip-rule="evenodd" d="M64.2823 25.1634C64.2796 25.6047 64.2823 26.0487 64.2506 26.49C64.2083 27.0475 64.3246 27.5892 64.3906 28.1336C64.4297 28.3317 64.5108 28.5191 64.6284 28.6832C64.7095 28.8059 64.8205 28.9059 64.9508 28.9739C65.2759 29.1457 65.6167 29.291 65.9471 29.4496C66.4755 29.7059 67.0093 29.9596 67.5325 30.2344C68.7587 30.8739 69.9187 31.6217 71.0841 32.3642C71.186 32.4275 71.2798 32.5118 71.3964 32.5627C71.5119 32.6132 71.6688 32.5558 71.6971 32.4329C71.7843 32.0392 71.8795 31.6428 71.9429 31.2438C72.0671 30.4616 72.1543 29.6742 72.2811 28.892C72.4887 27.4861 72.9233 26.1233 73.568 24.8569C73.9063 24.2016 74.2022 23.5251 74.6567 22.9384C74.7263 22.8515 74.6837 22.7199 74.6445 22.6157C74.5055 22.246 74.601 21.8612 74.6541 21.4824C74.6657 21.3601 74.7205 21.2459 74.8086 21.1602C74.8967 21.0745 75.0124 21.0229 75.135 21.0147C75.4627 20.983 75.7745 20.8562 76.1127 20.9011C76.2951 20.9275 76.4827 20.9064 76.6677 20.8826C76.7765 20.8746 76.8809 20.8361 76.9689 20.7716C77.3124 20.4809 77.5767 20.1295 77.6242 19.6618C77.6375 19.5111 77.6427 19.3631 77.6665 19.2178C77.6917 19.0815 77.6815 18.941 77.6372 18.8096C77.5928 18.6783 77.5155 18.5605 77.4128 18.4673C77.1486 18.211 76.9055 17.9336 76.6544 17.664C74.9632 15.8147 73.1799 14.0516 71.3113 12.3817C71.0629 12.165 70.8092 11.9377 70.5239 11.7792C69.8051 11.3854 68.9648 11.4621 68.4706 12.2046C68.1139 12.7411 67.7836 13.296 67.4665 13.8562C67.1494 14.419 66.9301 15.0242 66.6843 15.6187C66.103 17.0193 65.6062 18.4409 65.1834 19.8943C64.8716 20.9777 64.6892 22.0876 64.4699 23.1868C64.3378 23.8395 64.2849 24.4975 64.2823 25.1634ZM85.1686 18.0472C85.0183 18.1828 84.8883 18.3395 84.7828 18.5123C84.426 19.0857 84.4657 19.3922 84.9413 19.8784C85.4038 20.3541 85.8979 20.8033 86.326 21.3054C86.9338 22.0189 87.5098 22.7614 88.0832 23.5066C89.3781 25.1846 90.3399 27.0422 91.0217 29.0453C91.212 29.6028 91.3441 30.1736 91.3732 30.7708C91.3943 31.1936 91.4683 31.6111 91.5317 32.0313C91.5978 32.4805 91.7616 32.5492 92.1659 32.3325C93.1251 31.8199 94.0844 31.3099 95.0409 30.7946C95.8178 30.3744 96.5842 29.9384 97.3003 29.4126C97.6194 29.191 97.8792 28.8944 98.0566 28.5488C98.234 28.2031 98.3237 27.8191 98.3176 27.4307L98.3385 26.1242C98.3387 26.116 98.3454 26.1094 98.3536 26.1094C98.3626 26.1094 98.3696 26.1016 98.3686 26.0926C98.3565 25.9851 98.3483 25.8821 98.3282 25.7791C98.1697 24.9097 98.1168 24.0272 97.9662 23.1551C97.8322 22.3943 97.662 21.6404 97.4562 20.8958C97.2527 20.1559 97.0202 19.416 96.8035 18.6761C96.6661 18.2163 96.5524 17.7512 96.3965 17.302C96.1666 16.6414 95.8998 15.9913 95.6672 15.3307C95.3716 14.5167 94.9889 13.737 94.5256 13.0053C94.2481 12.57 93.8977 12.1856 93.4898 11.869C93.0617 11.5255 92.6178 11.5202 92.1421 11.7395C92.0787 11.7713 92.01 11.803 91.9466 11.84C91.4075 12.1597 90.8896 12.5032 90.3954 12.897C89.5476 13.5775 88.7526 14.3213 88.0172 15.1219C87.0923 16.1182 86.1886 17.1382 85.1686 18.0472ZM74.0648 10.7116C75.1852 11.7528 76.2554 12.8441 77.2939 13.9672C77.4683 14.1548 77.6639 14.3266 77.8594 14.4957C78.195 14.7784 78.5465 15.0506 78.8768 15.3413C79.2467 15.6716 79.6008 16.0204 79.9602 16.3639C80.0053 16.4061 80.0515 16.4453 80.0988 16.482C80.8182 17.0394 81.9897 17.1848 82.6054 16.5145C82.9806 16.1076 83.3796 15.7244 83.7681 15.3307C84.0578 15.0215 84.3744 14.7385 84.7141 14.4851C84.9125 14.3502 85.0844 14.18 85.2214 13.983C85.4533 13.6508 85.7171 13.3419 86.0089 13.0608C86.7065 12.35 87.4094 11.6444 88.1097 10.9389C88.2392 10.8067 88.3607 10.6508 88.5166 10.5689C88.8866 10.3654 89.1191 10.0431 89.3754 9.7286C89.4579 9.62955 89.5177 9.51362 89.5505 9.38899C89.5834 9.26436 89.5886 9.13405 89.5657 9.0072C89.517 8.75446 89.4052 8.51812 89.2407 8.32015C89.0108 8.00569 88.7782 7.69388 88.5642 7.37414C88.4722 7.23821 88.3498 7.04694 88.2342 6.86348C87.9992 6.49025 87.7716 6.10931 87.4834 5.77543C87.3034 5.56493 87.1183 5.35875 86.9285 5.15708C86.767 5.00459 86.6539 4.80791 86.6035 4.59158C86.518 4.20197 86.1402 3.95357 85.8458 3.68439C85.6466 3.50215 85.421 3.29745 85.2637 3.15935C84.1486 2.19484 82.9621 1.31489 81.9051 0.284312C81.5616 -0.0486424 81.1123 -0.0856367 80.6843 0.15483C80.3302 0.353018 79.9972 0.582914 79.6458 0.789029C78.8794 1.23825 78.232 1.84603 77.5582 2.42209C77.3389 2.61235 77.1671 2.85546 76.8976 2.99816C76.5593 3.17785 76.4563 3.4738 76.5355 3.83847C76.5567 3.94681 76.5884 4.05252 76.6095 4.16086C76.636 4.3062 76.6677 4.45153 76.6677 4.59687C76.665 5.01174 76.4959 5.21257 76.0916 5.27071C75.9066 5.29713 75.7217 5.2892 75.5367 5.29713C75.1482 5.31299 74.8391 5.44247 74.6277 5.80978C74.245 6.4813 73.826 7.13145 73.3725 7.7573C73.2307 7.95037 73.0976 8.14963 72.9734 8.3545C72.8821 8.49201 72.8042 8.63803 72.7409 8.79052C72.5797 9.23182 72.6537 9.51456 73.0104 9.82373C73.3593 10.125 73.7292 10.3998 74.0648 10.7116ZM82.9568 54.9285C83.0836 54.9074 83.2078 54.8387 83.332 54.844C83.9134 54.8704 84.4657 54.7066 85.0206 54.5903C85.594 54.4714 86.1807 54.3895 86.7224 54.1411C87.5944 53.7368 88.4294 53.269 89.2222 52.73C89.3784 52.6311 89.5237 52.516 89.6555 52.3864C90.2897 51.7285 91.0032 51.1339 91.5 50.3438C91.5714 50.237 91.6558 50.1394 91.751 50.0531C92.4117 49.4031 92.9613 48.6658 93.4528 47.8863C93.6483 47.5744 93.8228 47.2521 94.0262 46.9429C94.5098 46.203 94.9405 45.4314 95.321 44.6307C95.6725 43.8987 96.0424 43.18 96.3939 42.448C96.6581 41.901 96.9462 41.3593 97.147 40.7885C97.4324 39.9746 97.6597 39.137 97.8922 38.3046C97.9926 37.9505 98.0402 37.5832 98.1247 37.2238C98.3996 36.0769 98.5792 34.9116 98.7114 33.7383C98.7235 33.5921 98.7518 33.4476 98.7959 33.3076C98.9016 33.0169 98.8224 32.7263 98.8065 32.4356C98.7986 32.2955 98.6717 32.211 98.529 32.2242C98.4194 32.2365 98.3107 32.2568 98.204 32.285C97.2964 32.5328 96.4407 32.9419 95.6778 33.4926C95.0964 33.9154 94.5098 34.3303 93.8941 34.6923C93.1798 35.1127 92.5135 35.6098 91.9069 36.1747C91.5549 36.5005 91.2514 36.8752 91.0059 37.2872C90.8555 37.518 90.7858 37.7921 90.8077 38.0667C90.8314 38.3574 90.8156 38.656 90.7865 38.9467C90.7707 39.1396 90.628 39.2294 90.4404 39.2215C90.0275 39.2011 89.616 39.2828 89.2422 39.4594C88.8684 39.6359 88.5439 39.9018 88.2973 40.2336C88.0526 40.5556 87.7961 40.8685 87.5283 41.1717C86.7858 42.0225 86.1357 42.9421 85.6416 43.9542C85.3356 44.5621 84.984 45.1461 84.5899 45.7009C83.8235 46.8002 83.2105 47.9629 82.859 49.2577C82.4997 50.579 82.2143 51.9082 82.238 53.2875C82.2565 53.6734 82.2565 54.0618 82.2962 54.445C82.3358 54.8149 82.6001 54.992 82.9568 54.9285ZM79.6193 50.616L79.1807 48.6764C78.8636 47.2943 78.269 46.0339 77.5238 44.8368C76.9689 43.9436 76.414 43.0531 75.8961 42.1415C75.5706 41.5597 75.094 41.0768 74.5167 40.7436C74.2925 40.6151 74.0915 40.4499 73.9221 40.2547C73.8293 40.1392 73.7228 40.0354 73.605 39.9455C73.4174 39.8109 73.2608 39.6378 73.1455 39.4377C73.0302 39.2377 72.9589 39.0153 72.9365 38.7855C72.8999 38.4698 72.7462 38.1794 72.5057 37.9716C71.8425 37.3638 71.1898 36.7376 70.5106 36.143C69.887 35.596 69.2422 35.0754 68.5922 34.5601C68.32 34.3435 68.0161 34.1664 67.7175 33.9841C67.4216 33.8018 67.1097 33.6406 66.8111 33.4582L64.4408 32.0366C64.3298 31.9705 64.2189 31.9044 64.0973 31.8569C63.878 31.7644 63.7009 31.8569 63.6349 32.0947C63.6144 32.1653 63.602 32.238 63.5979 32.3114L63.4288 33.9603C63.4002 34.2183 63.4412 34.4793 63.5477 34.7161C63.7274 35.1283 63.8331 35.5511 63.804 36.0056C63.7961 36.0954 63.804 36.1906 63.8225 36.2804C63.981 37.0732 64.0947 37.8844 64.3298 38.6587C64.6892 39.8372 65.2415 40.9471 65.807 42.0463C66.0765 42.5695 66.3514 43.0901 66.6209 43.616C66.8323 44.0256 67.012 44.451 67.2472 44.8474C67.9659 46.0682 68.7005 47.2811 69.4325 48.494C70.1196 49.6409 70.9889 50.6398 71.9587 51.5541C72.1543 51.739 72.3683 51.8579 72.6379 51.8976C72.9814 51.9399 73.3302 51.9927 73.6764 52.0429C73.8745 52.0746 74.0727 52.1063 74.2736 52.1486C74.3749 52.1644 74.469 52.2108 74.5432 52.2817C74.6174 52.3526 74.6681 52.4445 74.6884 52.545C74.7307 52.7036 74.7756 52.8621 74.8126 53.0233C74.8398 53.1606 74.8989 53.2896 74.9852 53.3998C75.0715 53.51 75.1826 53.5983 75.3094 53.6575C75.8326 53.8821 76.3611 54.1014 76.9028 54.2679C77.109 54.3313 77.3256 54.3736 77.5265 54.4661C77.9598 54.6696 78.4091 54.8308 78.8821 54.9206C78.9753 54.9384 79.0686 54.9575 79.1636 54.9692C79.4592 55.0057 79.747 54.8261 79.8251 54.5387C79.8652 54.3911 79.8734 54.2366 79.8492 54.0856C79.8219 53.847 79.8131 53.6067 79.8228 53.3668C79.8572 52.5344 79.6907 51.7153 79.6643 50.8881C79.6643 50.7957 79.6378 50.7058 79.6193 50.616ZM80.3989 43.8247C80.5574 44.155 80.8349 44.3638 81.1467 44.5382C81.3158 44.6333 81.4902 44.6439 81.6752 44.5699C82.0319 44.4272 82.275 44.1471 82.5261 43.8829C82.5631 43.8432 82.5789 43.7798 82.5842 43.7296C82.6186 43.3861 82.645 43.0373 82.6767 42.6911C82.6923 42.5148 82.8444 42.3877 83.0184 42.3554C83.3472 42.2945 83.4586 42.1683 83.6439 41.7874C83.6914 41.6896 83.7152 41.5786 83.7575 41.4782C83.8949 41.1558 84.0191 40.8255 84.1856 40.5216C84.4947 39.9508 84.8938 39.4461 85.3218 38.9625C85.7288 38.508 86.141 38.0641 86.5242 37.5884C87.0447 36.941 87.5917 36.3201 88.255 35.8101C88.3741 35.7254 88.466 35.6079 88.5193 35.4718C88.6514 35.0173 88.8681 34.5734 88.7254 34.0713C88.6805 33.918 88.7148 33.741 88.6989 33.5771C88.6302 32.8478 88.7227 32.1106 88.551 31.3839C88.3766 30.6493 88.2233 29.912 87.9485 29.2012C87.6289 28.4359 87.2378 27.7024 86.7805 27.0105C85.6839 25.2533 84.4815 23.5806 83.0017 22.1219C82.7798 21.9026 82.5525 21.678 82.3041 21.4956C81.7915 21.1257 81.2101 21.1785 80.7345 21.5908C80.5447 21.7638 80.3405 21.9203 80.1241 22.0585C79.4506 22.4774 78.8364 22.9849 78.2981 23.5674C77.566 24.3735 76.9407 25.2705 76.4378 26.2363C76.118 26.8203 75.8485 27.4254 75.645 28.0596C75.4442 28.6938 75.246 29.328 75.0795 29.9648C74.9368 30.5198 74.8364 31.08 74.7281 31.6402C74.6673 31.9467 74.6382 32.2585 74.5774 32.5651C74.522 32.8557 74.4427 33.1385 74.3766 33.4239C74.2983 33.7096 74.2938 34.0106 74.3634 34.2985C74.4797 34.7478 74.5854 35.1917 74.6964 35.6383C74.8655 36.3253 75.246 36.8882 75.7507 37.3585C76.3479 37.9135 76.8949 38.508 77.3864 39.1554C77.5767 39.4038 77.7987 39.6311 77.9995 39.8689C78.2003 40.1094 78.4064 40.3472 78.5861 40.6009C79.1648 41.4148 79.6907 42.2577 80.0844 43.1773C80.1769 43.3967 80.2958 43.6107 80.3989 43.8247ZM89.3781 60.3721C89.8801 59.8647 90.3743 59.3309 91.0402 59.0165C91.0897 58.9915 91.1359 58.9604 91.1776 58.924C91.2288 58.8849 91.2666 58.8307 91.2855 58.7691C91.3045 58.7076 91.3037 58.6416 91.2833 58.5805C91.2516 58.4589 91.1591 58.3981 91.0402 58.3875C90.5646 58.3479 90.0863 58.2686 89.6133 58.2818C88.7492 58.3083 87.8824 58.1761 87.0236 58.3532C86.9708 58.3638 86.9153 58.3585 86.8598 58.3558C86.3709 58.3373 85.9085 58.4668 85.4513 58.6042C85.3113 58.6489 85.1805 58.7188 85.0655 58.8103C84.3828 59.3775 83.8365 60.091 83.4668 60.8979C83.2184 61.4079 83.0176 61.9444 82.7586 62.457C82.1958 63.5721 81.5959 64.6767 81.1282 65.8394C81.0646 65.9984 80.8968 65.8914 80.8356 65.7314C80.7447 65.4942 80.6542 65.2529 80.5495 65.0202C80.4042 64.7031 80.2641 64.3755 80.0659 64.0901C79.5691 63.3819 79.0406 62.6948 78.528 61.9972C78.1827 61.5421 77.8752 61.0595 77.6084 60.5544C77.4922 60.3256 77.3475 60.1125 77.1777 59.9202C76.6888 59.3547 76.0731 58.9478 75.431 58.5831C75.2049 58.455 74.9482 58.391 74.6884 58.3981C73.9538 58.4087 73.2166 58.4378 72.4872 58.303C72.3974 58.2871 72.3023 58.2924 72.2124 58.2924L70.5001 58.2845C70.4076 58.2845 70.3125 58.2845 70.2253 58.303C70.2022 58.3073 70.1803 58.3163 70.1609 58.3295C70.1416 58.3427 70.1251 58.3598 70.1127 58.3796C70.1003 58.3995 70.0921 58.4218 70.0888 58.445C70.0854 58.4682 70.0869 58.4918 70.0931 58.5144C70.1196 58.6201 70.1671 58.7258 70.2358 58.8051C70.3997 58.9795 70.5793 59.1327 70.7538 59.3019C71.9693 60.5174 73.021 61.8704 73.9829 63.292C74.5378 64.1165 75.0742 64.9568 75.5076 65.8552C75.9621 66.8013 76.4034 67.7526 76.8394 68.7091C76.998 69.0606 77.146 69.4226 77.2569 69.7926C77.4868 70.5483 77.7035 71.312 77.8991 72.0783C78.0127 72.5223 78.1501 72.9715 78.1078 73.4392C78.0629 73.9016 78.1078 74.3588 78.1448 74.8186C78.1924 75.4607 78.2294 76.1055 78.2505 76.7476C78.2717 77.2814 78.2717 77.8178 78.2637 78.3516C78.2425 78.704 78.3454 79.0527 78.5544 79.3373C78.5762 79.3654 78.5933 79.3969 78.6077 79.4296C78.6579 79.5432 78.68 79.7205 78.5703 79.7786C78.3034 79.9477 78.2664 80.2014 78.2479 80.492C78.195 81.3376 78.1369 82.1832 78.0365 83.0236C77.9096 84.0647 77.7379 85.1006 77.5873 86.1417C77.5686 86.2685 77.5615 86.3968 77.5661 86.5249C77.574 86.7653 77.6454 86.8472 77.8674 86.9265C78.0048 86.9794 78.1448 87.0217 78.2717 87.0877C78.4751 87.1934 78.6865 87.2463 78.9111 87.233C79.223 87.2146 79.5348 87.1855 79.8439 87.1538C80.0289 87.1353 80.2086 87.0903 80.3909 87.0745C80.9617 87.0243 81.5272 87.0507 82.0953 87.167C82.5446 87.2595 83.0202 87.3255 83.4536 87.1406C83.4606 87.1373 83.4676 87.134 83.4747 87.1308C83.962 86.9084 84.4013 86.5938 84.3335 86.0624C84.2648 85.5154 84.1591 84.9711 84.1221 84.4188C84.085 83.7382 83.9958 83.0615 83.8553 82.3946C83.7502 81.9272 83.6988 81.4494 83.702 80.9703C83.7073 79.3478 83.6941 77.7253 83.7284 76.1081C83.7469 75.2414 83.7786 74.3747 84.0719 73.5396C84.212 73.138 84.1169 72.7812 83.7205 72.5381C83.5122 72.4163 83.3441 72.2363 83.2369 72.0202C83.0572 71.645 83.1893 71.1402 83.702 71.0266C83.8274 70.9966 83.9564 70.9851 84.0851 70.9923C84.3283 71.0055 84.4551 70.8786 84.5344 70.6672C84.5687 70.5615 84.611 70.4585 84.6401 70.3528C84.7933 69.8586 84.936 69.3645 85.0893 68.873C85.4645 67.6574 85.7737 66.4181 86.3207 65.266C86.7224 64.4204 87.1663 63.588 87.5944 62.7556C88.0515 61.8571 88.6778 61.0829 89.3781 60.3721Z" fill="#B5B398"/>
<path d="M151.871 21.951C151.933 21.7012 151.835 21.4941 151.586 21.4449C151.362 21.3891 151.129 21.3783 150.901 21.4132C150.673 21.4481 150.454 21.528 150.257 21.6482C149.506 22.0539 148.69 22.2948 147.915 22.6308C147.138 22.97 146.385 23.3599 145.626 23.7353C144.849 24.1189 144.077 24.5092 143.307 24.9046C142.733 25.202 142.168 25.5105 141.597 25.8096C140.833 26.2143 140.057 26.6029 139.296 27.0177C138.782 27.3018 138.287 27.6214 137.782 27.9275C137.564 28.0544 137.405 28.2181 137.4 28.4913C137.396 28.5651 137.379 28.6376 137.352 28.7061C137.027 29.54 136.953 30.428 136.826 31.2993C136.74 31.8858 136.747 31.8946 137.09 32.3328C137.1 32.3457 137.106 32.3616 137.105 32.378C137.098 32.5682 136.974 32.6991 136.84 32.813C136.658 32.9726 136.542 33.1952 136.516 33.4363C136.28 34.8323 136.046 36.2334 135.793 37.6267C135.64 38.4591 135.464 39.2878 135.27 40.1137C134.935 41.5466 134.493 42.9552 134.2 44.3997C134.035 45.2302 133.85 46.0563 133.661 46.8806C133.596 47.167 133.499 47.4471 133.417 47.7308C133.306 48.1009 133.199 48.4727 133.085 48.8411C133.049 48.9634 133.004 49.083 132.959 49.2051C132.865 49.4619 132.774 49.7261 132.671 49.9802C132.603 50.1513 132.525 50.3146 132.441 50.4796C132.302 50.7506 132.096 50.8518 131.772 50.8541C131.406 50.8546 131.041 50.8077 130.686 50.7145C130.045 50.5537 129.392 50.4244 128.743 50.2911C128.438 50.2268 128.132 50.1792 127.844 50.0316C127.556 49.899 127.234 49.861 126.923 49.9231C126.824 49.9411 126.722 49.9318 126.628 49.8961C126.533 49.8604 126.451 49.7997 126.388 49.7206C126.364 49.6942 126.339 49.669 126.312 49.645C125.894 49.3056 125.696 48.8971 125.81 48.3348C125.902 47.8707 125.88 47.379 125.962 46.9098C126.028 46.5314 126.158 46.1633 126.284 45.7968C126.566 44.979 126.864 44.1673 127.15 43.3512C127.2 43.2108 127.26 43.0672 127.265 42.9269C127.292 42.3172 127.616 41.8076 127.805 41.2549C127.857 41.1053 127.994 40.9847 128.098 40.8577C128.256 40.6663 128.37 40.4642 128.337 40.2088C128.331 40.1335 128.335 40.0576 128.349 39.9833C128.454 39.3683 128.182 39.2519 127.77 38.9828C127.658 38.9165 127.528 38.8894 127.399 38.9058C127.056 38.9612 126.716 39.0493 126.38 39.1275C126.219 39.1616 126.061 39.2309 125.901 39.2509C125.605 39.2724 125.322 39.3809 125.088 39.5628C124.999 39.6291 124.895 39.6715 124.786 39.6858C124.346 39.769 123.943 39.9405 123.542 40.1337C123.395 40.2049 123.23 40.2348 123.071 40.2933C122.816 40.3903 122.55 40.4687 122.308 40.5977C122.084 40.7211 121.864 40.8512 121.637 40.9729C121.361 41.118 121.091 41.2724 120.783 41.3418C120.747 41.3505 120.706 41.3607 120.678 41.3861C120.416 41.6351 120.181 41.9171 119.889 42.1339C119.85 42.16 119.845 42.2309 119.834 42.2868C119.739 42.8268 119.613 43.3596 119.575 43.9148C119.521 44.6853 119.516 45.4574 119.475 46.224C119.435 46.9404 119.346 47.6528 119.287 48.3698C119.242 48.9022 119.196 49.4346 119.174 49.9682C119.157 50.3808 119.058 50.7612 118.891 51.1379C118.832 51.2935 118.731 51.4297 118.6 51.5315C118.468 51.6332 118.31 51.6964 118.145 51.7142C117.981 51.7382 117.815 51.774 117.652 51.7864C116.563 51.8916 115.515 52.1973 114.476 52.5031C114.174 52.5926 113.879 52.6915 113.577 52.781C113.454 52.8185 113.328 52.8417 113.2 52.8501C112.887 52.8601 112.724 52.7396 112.629 52.4372C112.574 52.2615 112.533 52.0817 112.507 51.8995C112.447 51.5359 112.399 51.1715 112.355 50.8056C112.333 50.4555 112.242 50.1132 112.088 49.7984C111.97 49.5834 112.019 49.3602 112.093 49.1566C112.19 48.8958 112.201 48.6107 112.124 48.3431C111.995 47.8713 112.065 47.3894 112.045 46.9136C112.048 46.7294 112.086 46.5475 112.155 46.3771C112.21 46.21 112.229 46.0336 112.213 45.8587C112.196 45.6838 112.144 45.5141 112.059 45.3601C111.926 45.0725 111.662 44.847 111.346 44.8155C111.329 44.8138 111.313 44.8124 111.296 44.8113C111.084 44.7978 110.886 44.8548 110.786 45.0663C110.681 45.2794 110.507 45.34 110.293 45.3658C110.052 45.392 109.859 45.5168 109.649 45.6438C109.244 45.8879 108.789 46.051 108.489 46.4448C108.479 46.4589 108.457 46.466 108.441 46.4683C107.993 46.5404 107.868 46.8761 107.805 47.2561C107.796 47.3165 107.717 47.3391 107.656 47.3396C107.579 47.3402 107.494 47.3414 107.407 47.3458C107.287 47.3429 107.169 47.3667 107.059 47.4155C106.95 47.4644 106.853 47.537 106.776 47.6281C106.661 47.7641 106.507 47.8736 106.359 47.9757C106.075 48.1817 105.771 48.3607 105.502 48.5786C105.291 48.7557 105.114 48.9668 104.933 49.1737C104.887 49.2316 104.861 49.3031 104.859 49.3772C104.843 49.687 104.818 49.9967 104.929 50.3027C105.061 50.6683 105.152 51.0442 105.269 51.4147C105.481 52.1043 105.616 52.8068 105.669 53.5272C105.683 53.7832 105.759 54.0335 105.814 54.2851C105.952 54.9258 105.695 55.4724 105.088 55.725C103.98 56.1852 102.903 56.7051 101.885 57.3422C101.807 57.391 101.724 57.4328 101.639 57.4669C101.546 57.5101 101.443 57.5248 101.343 57.5092C101.242 57.4936 101.148 57.4483 101.074 57.3792C100.846 57.2193 100.673 56.9933 100.578 56.7318C100.479 56.3994 100.312 56.1068 100.142 55.8078L100.131 55.7894C99.8648 55.3304 99.6689 54.8325 99.4444 54.3492C99.3886 54.2338 99.3693 54.0847 99.282 54.0014C99.0185 53.7631 98.9233 53.444 98.8449 53.1251C98.7121 52.5697 97.9634 52.4422 97.4112 52.5876L97.2634 52.6265C97.2483 52.6313 97.2273 52.6351 97.2146 52.6474C96.6847 53.2262 95.9086 53.5878 95.4037 54.1885L95.3337 54.2704C95.039 54.615 94.7431 54.9611 94.4577 55.3182C94.254 55.5681 93.9784 55.7575 93.8049 56.0506C93.5447 56.4818 93.3709 56.9411 93.2461 57.4238C93.2246 57.4951 93.2208 57.5704 93.235 57.6435C93.3516 58.0833 93.4446 58.5361 93.7967 58.8794C94.1283 59.2015 94.3913 59.5785 94.612 59.9883C94.7061 60.1648 94.8267 60.3226 94.9498 60.4876C95.0326 60.5986 95.0507 60.7694 94.9447 60.8586C94.659 61.1123 94.3674 61.3649 94.0783 61.6168C94.0656 61.6292 94.0454 61.6355 94.0368 61.6521C93.9407 61.8043 93.867 61.9745 93.747 62.1037C93.6254 62.2363 93.4104 62.3014 93.3236 62.4479C93.0708 62.8851 92.6929 63.2066 92.3849 63.5919C92.1802 63.8476 92.0349 64.1512 91.8335 64.4086C91.5638 64.757 91.2692 65.0882 90.9813 65.4228C90.828 65.6042 90.6457 65.7642 90.6988 66.0467C90.7127 66.1172 90.6392 66.2179 90.5821 66.283C90.4874 66.3956 90.3762 66.4932 90.2524 66.5727C90.0891 66.6603 89.9649 66.8064 89.9048 66.9816C89.8689 67.0788 89.7873 67.1627 89.7232 67.2495C89.6899 67.2932 89.6134 67.3229 89.6094 67.3629C89.5695 67.7635 89.2449 67.9905 89.0594 68.2984L88.1533 69.809C88.1266 69.8562 88.0872 69.9157 88.0957 69.9602C88.1702 70.3634 87.8773 70.647 87.7623 70.9852C87.6553 71.2961 87.5117 71.5963 87.3773 71.8991L87.3742 71.9067C87.3342 72.0034 87.291 72.1079 87.2181 72.1849C87.0209 72.4056 86.9044 72.6865 86.8876 72.9819C86.8646 73.1637 86.8091 73.3391 86.7536 73.5146C86.6011 74.006 86.4335 74.4939 86.2876 74.9888C86.2487 75.1108 86.242 75.2409 86.2682 75.3663C86.3029 75.4677 86.3722 75.5538 86.464 75.6093C86.6045 75.7008 86.7713 75.7436 86.9386 75.7309C87.1059 75.7182 87.2643 75.6507 87.3894 75.539C87.6492 75.3339 87.8873 75.1028 88.1001 74.8493C88.7202 74.0746 89.3099 73.2735 89.8722 72.456C90.1451 72.0651 90.3949 71.6538 90.7472 71.321C90.7752 71.2956 90.7875 71.2557 90.8171 71.2352C91.4843 70.7504 91.8814 70.0239 92.4449 69.4388C92.9789 68.8787 93.5479 68.3531 94.1485 67.8651C95.0233 67.1597 95.921 66.4831 96.8145 65.8022C96.9506 65.7093 97.0539 65.5758 97.1099 65.4209C97.1378 65.3256 97.1718 65.2325 97.2115 65.1421C97.4073 64.697 97.9147 64.5132 98.3992 64.5542C98.6088 64.5684 98.7963 64.5481 98.9552 64.3843C99.0485 64.2963 99.16 64.2299 99.2818 64.1899C99.4768 64.1228 99.6577 64.0464 99.7735 63.8602C99.8096 63.7989 99.8734 63.7289 99.933 63.7157C100.214 63.6576 100.418 63.4711 100.657 63.3405C101.057 63.1146 101.484 62.941 101.902 62.7539C102.145 62.6629 102.355 62.5026 102.508 62.2929C102.66 62.0832 102.748 61.8333 102.76 61.5743C102.768 61.5025 102.769 61.4274 102.785 61.3557C102.861 61.016 103.07 60.8364 103.416 60.877C103.782 60.9222 104.141 61.0058 104.5 61.0835C104.661 61.1187 104.817 61.183 104.977 61.2241C105.209 61.2856 105.453 61.2823 105.683 61.2146C106.463 60.9991 107.253 60.8054 108.032 60.5982C108.23 60.5471 108.417 60.4741 108.611 60.4129C108.732 60.3747 108.853 60.3282 108.979 60.3052C109.881 60.1259 110.784 59.9324 111.69 59.7824C112.415 59.6646 113.149 59.5829 113.879 59.5186C115.017 59.4175 116.153 59.3473 117.293 59.273C117.659 59.2489 118.027 59.2548 118.393 59.3334C118.587 59.3775 118.796 59.3642 118.997 59.3783C119.566 59.426 120.136 59.4678 120.704 59.5104C121.053 59.5361 121.401 59.5843 121.747 59.5858C123.021 59.5997 124.283 59.7697 125.542 59.9489C125.942 60.0055 126.34 60.0546 126.746 60.0762C127.055 60.0895 127.34 60.0465 127.575 59.8422C127.655 59.7655 127.755 59.714 127.864 59.6945C127.973 59.675 128.085 59.6883 128.186 59.7326C128.359 59.7972 128.539 59.8403 128.717 59.8783C128.988 59.937 129.187 60.0873 129.317 60.3234C129.398 60.4791 129.516 60.6126 129.66 60.712C129.805 60.8114 129.971 60.8737 130.146 60.8934C130.471 60.9513 130.792 61.0443 131.117 61.108C131.768 61.2406 132.413 61.3806 133.026 61.6529C133.226 61.7422 133.444 61.7925 133.656 61.8503C134.241 62.0094 134.833 62.1552 135.419 62.3167C135.665 62.4006 135.933 62.391 136.172 62.2897C136.255 62.2551 136.344 62.2022 136.432 62.1994C136.796 62.1786 137.003 61.9805 137.104 61.6437C137.113 61.6104 137.13 61.5773 137.148 61.5441C137.706 60.4211 138.083 59.2173 138.267 57.9769C138.428 56.9783 138.69 55.998 138.922 55.0106C139.288 53.4679 139.662 51.9286 140.041 50.3903C140.157 49.9251 140.289 49.464 140.436 49.0077C140.882 47.5674 141.339 46.124 141.802 44.6865C141.897 44.4255 141.901 44.1402 141.813 43.8768C141.777 43.7718 141.756 43.662 141.713 43.5593C141.404 42.8531 141.707 42.2755 142.102 41.7186C142.162 41.636 142.277 41.5969 142.365 41.5248C142.532 41.3862 142.738 41.2659 142.848 41.0897C143.149 40.6321 143.414 40.1499 143.68 39.666L143.711 39.6093C143.8 39.4511 143.845 39.268 143.913 39.0969C143.982 38.906 143.993 38.6991 143.947 38.5016C143.856 38.0288 143.935 37.613 144.338 37.2752C144.602 37.0428 144.807 36.7503 144.934 36.4224C145 36.2713 145.064 36.1153 145.114 35.9581C145.661 34.2921 146.405 32.7054 147.101 31.1004C147.119 31.053 147.157 31.0051 147.171 30.9536C147.44 29.935 148.091 29.1173 148.606 28.2289C148.843 27.8132 149.117 27.4164 149.378 27.0153C149.59 26.6937 149.793 26.3635 149.863 25.9701C149.888 25.8628 149.932 25.7607 149.993 25.6689C150.308 25.1483 150.63 24.6337 150.944 24.1164C151.123 23.8134 151.292 23.5078 151.468 23.2031C151.485 23.1699 151.51 23.1369 151.514 23.1027C151.544 22.6912 151.772 22.3422 151.871 21.951Z" fill="#B5B398"/>
<path fill-rule="evenodd" clip-rule="evenodd" d="M66.2226 82.1711C66.0128 82.3199 65.7743 82.4234 65.5224 82.475C64.9093 82.6019 64.2963 82.734 63.6832 82.8502C63.358 82.9075 63.031 82.9542 62.7028 82.9903C62.4095 83.0273 62.1136 83.0431 61.8229 83.0801C61.5478 83.1034 61.2782 83.1713 61.0249 83.281C60.719 83.4079 60.3882 83.463 60.0577 83.4422C59.3337 83.4422 58.6307 83.2757 57.9252 83.1779C57.3262 83.0851 56.7364 82.9401 56.1627 82.7445C55.8006 82.6256 55.4915 82.6019 55.1664 82.808C55 82.9163 54.815 82.9982 54.6327 83.0986C54.4028 82.9824 54.2838 82.7683 54.1491 82.5754C53.9905 82.3508 53.8505 82.1103 53.7104 81.8725C53.6007 81.6796 53.4322 81.5269 53.2295 81.4365C52.4896 81.0983 51.821 80.6385 51.134 80.2157C50.5526 79.8563 49.9977 79.4626 49.4243 79.0953C49.1175 78.8904 48.8462 78.6369 48.621 78.3448C48.1453 77.7581 47.6221 77.2085 47.231 76.5585C47.1176 76.3881 46.9631 76.249 46.7818 76.1542C46.4972 75.9709 46.2558 75.7282 46.0743 75.4426C45.8927 75.157 45.7752 74.8354 45.7301 74.5C45.6847 74.0054 45.5438 73.5244 45.3152 73.0836C45.191 72.859 45.0906 72.6211 44.9849 72.386C44.879 72.1556 44.8396 71.9002 44.8713 71.6487C44.8895 71.2635 44.8494 70.8777 44.7524 70.5045C44.6678 70.1134 44.6995 69.7382 44.7365 69.3497C44.755 69.1542 44.8581 69.067 45.0642 69.0406C45.2835 69.0141 45.5055 68.9956 45.7248 68.9904C46.8479 68.956 47.9709 68.9401 49.094 68.8926C50.1246 68.8476 51.1551 68.8318 52.1857 68.8688C52.4632 68.8767 52.738 68.8873 53.0128 68.9137C53.1582 68.9242 53.301 68.9581 53.4356 69.0141C53.7157 69.133 53.8161 69.3365 53.7738 69.6378C53.758 69.7461 53.721 69.8518 53.6998 69.9601C53.5149 70.7899 53.3933 71.6249 53.4039 72.4784C53.4092 73.0598 53.5254 73.6147 53.795 74.13C53.8954 74.3256 53.9879 74.5264 54.083 74.7272C54.3151 75.1919 54.6827 75.5752 55.1374 75.8265C55.5205 76.0485 55.9037 76.2678 56.2948 76.4765C56.6859 76.6906 57.1087 76.8201 57.55 76.8756C58.1207 76.9495 58.6862 76.9495 59.2597 76.8703C59.9296 76.7752 60.5557 76.4814 61.0569 76.0268C61.5581 75.5723 61.9115 74.9778 62.0713 74.3203C62.1056 74.1829 62.1479 74.0481 62.1955 73.8763C62.8984 74.7431 63.5352 75.5939 64.0928 76.5056C64.1561 76.5966 64.206 76.6963 64.2408 76.8016C64.2951 76.9972 64.4042 77.1732 64.5552 77.3089C64.6583 77.4067 64.7851 77.5388 64.7983 77.6657C64.8353 78.0356 65.0494 78.2999 65.2264 78.5932C65.3982 78.8759 65.5488 79.1745 65.7021 79.4652C66.0271 80.0624 66.3495 80.6649 66.5292 81.3282C66.6481 81.7695 66.6005 81.9042 66.2253 82.1738M73.8357 89.4406C73.7984 89.2415 73.6962 89.0603 73.545 88.9253C73.2438 88.669 73.0667 88.3202 72.8659 87.9899C72.814 87.9034 72.7798 87.8075 72.7652 87.7077C72.7507 87.6079 72.7562 87.5062 72.7813 87.4085C72.8534 87.1315 72.8556 86.841 72.7878 86.5629C72.72 86.2848 72.5843 86.0279 72.3929 85.8151C72.274 85.6751 72.1762 85.5165 72.0758 85.3659C71.9674 85.1968 71.8327 85.0409 71.8115 84.8585C71.8512 84.7951 71.8617 84.7528 71.8908 84.737C72.2026 84.5467 72.229 84.2825 72.1075 83.9707C71.9754 83.6271 71.8564 83.2783 71.719 82.9348C70.8814 80.8684 70.0358 78.8046 69.2034 76.7355C68.794 75.7081 68.3018 74.7156 67.7315 73.768C67.2928 73.044 66.8373 72.3303 66.3653 71.6276C65.717 70.6385 64.9192 69.756 64.0003 69.0115C63.3476 68.4962 62.6791 68.0073 62.0079 67.5211C60.5761 66.4747 58.9688 65.6926 57.2619 65.2116C56.2499 64.9341 55.2351 64.6619 54.2231 64.3792C53.4567 64.1678 52.6878 63.996 51.8845 64.0198C51.7206 64.0224 51.5541 63.9987 51.3877 63.9881C50.5421 63.9379 49.6965 63.9035 48.8509 63.8348C48.2854 63.7873 47.7516 63.8375 47.2707 64.1651C47.2416 64.1836 47.1993 64.1836 47.0672 64.2127C46.8901 63.9247 46.6021 63.8428 46.2718 63.848C46.1661 63.848 46.0604 63.782 45.9547 63.7503C45.8701 63.7238 45.7856 63.6842 45.6957 63.6763C45.3258 63.6446 44.9611 63.6261 44.5912 63.5996C44.4066 63.5839 44.2226 63.6355 44.0732 63.745C43.8485 63.9042 43.6127 64.0472 43.3677 64.1731C43.0876 64.3158 42.7916 64.3369 42.5379 64.1202C42.0464 63.6974 41.4757 63.5759 40.8441 63.5785C39.9245 63.5838 39.0023 63.5468 38.0827 63.5283C37.7127 63.5204 37.3428 63.5019 36.9781 63.5098C36.3704 63.5257 35.7626 63.5547 35.1548 63.5812C34.7716 63.5996 34.3858 63.6261 34 63.6472C33.8732 63.6525 33.7331 63.6895 33.6195 63.6551C33.1095 63.4966 32.5889 63.6551 32.0816 63.5917C31.9627 63.5759 31.8675 63.6499 31.812 63.7503C31.7196 63.9167 31.6694 64.0885 31.7513 64.2788C32.0208 64.8918 32.1371 65.5419 32.2269 66.1999C32.2533 66.3848 32.3062 66.5592 32.3643 66.7336C32.5387 67.2569 32.7264 67.7774 32.9008 68.3006C33.054 68.7552 33.1967 69.2123 33.3394 69.6695C33.38 69.8314 33.4729 69.9753 33.6037 70.0791C33.823 70.2429 34.0476 70.3248 34.3251 70.264C34.7928 70.161 35.2632 70.0791 35.7335 69.9813L36.7588 69.7699C36.9755 69.7197 37.1895 69.6695 37.4062 69.6245C37.755 69.5532 38.1355 69.7223 38.2597 70.0738C38.3628 70.3671 38.4949 70.6551 38.6006 70.9458C38.8464 71.6196 38.9917 72.3305 39.3405 72.9647C39.5466 73.3373 39.7607 73.7046 39.9536 74.0772C40.165 74.4867 40.4002 74.891 40.5429 75.3244C40.6486 75.6547 40.749 75.9903 40.8494 76.3233C40.9234 76.5637 41.0291 76.7619 41.251 76.8914C41.399 76.9786 41.5153 77.1028 41.5417 77.2799C41.5845 77.5157 41.6946 77.7341 41.8588 77.9088C41.9562 78.0201 42.0251 78.1534 42.0597 78.2972C42.1178 78.5683 42.2728 78.8088 42.4957 78.9737C43.0506 79.4546 43.4602 80.0307 43.4892 80.8102C43.4972 81.0031 43.4945 81.1802 43.3915 81.3387C43.2039 81.6347 43.0057 81.9227 42.8101 82.2108C42.7682 82.2719 42.7142 82.3238 42.6515 82.3633C42.5888 82.4029 42.5187 82.4292 42.4455 82.4407C42.0914 82.5094 41.8826 82.7393 41.8562 83.0828C41.8218 83.5188 41.5814 83.8306 41.333 84.153C40.6248 85.0779 39.9192 85.9948 39.2295 86.9276C38.923 87.3425 38.672 87.7944 38.3628 88.2066C38.2613 88.3493 38.1905 88.5115 38.155 88.683C38.1195 88.8545 38.1201 89.0315 38.1567 89.2028C38.1937 89.4565 38.3417 89.5992 38.5901 89.6362C38.8268 89.6877 39.0742 89.653 39.2877 89.5384C39.3934 89.475 39.4911 89.364 39.6312 89.4406C39.6471 89.4565 39.6655 89.4723 39.6655 89.4882L39.6391 89.8106C39.5916 90.3206 39.6391 90.4051 40.0936 90.635L40.2945 90.7275C40.9234 90.9865 41.5549 91.2428 42.1838 91.5071C42.5221 91.6498 42.8603 91.7977 43.1933 91.951C43.4741 92.0904 43.7835 92.1628 44.097 92.1624C44.3718 92.1571 44.5674 92.0224 44.6519 91.7819C44.7497 91.5071 44.8158 91.2164 44.8581 90.9257C44.8741 90.8061 44.8657 90.6845 44.8335 90.5683C44.8013 90.452 44.7458 90.3435 44.6704 90.2492C44.5153 90.0428 44.3647 89.8332 44.2186 89.6203C44.0838 89.4248 44.1287 89.2768 44.3507 89.1896C44.4524 89.1482 44.559 89.1198 44.6678 89.105C44.8501 89.0786 45.0351 89.0601 45.2201 89.0522C45.3776 89.0558 45.5323 89.0102 45.6626 88.9216C45.7929 88.833 45.8923 88.7059 45.9468 88.558C46.0525 88.3044 46.1423 88.0427 46.2612 87.7943C46.6629 86.9646 47.1015 86.156 47.6063 85.3844C47.9075 84.9246 48.3356 84.8823 48.7769 85.2443C48.946 85.3844 49.1098 85.5377 49.3001 85.6486C49.9686 86.0371 50.6372 86.4335 51.3612 86.7056C51.969 86.925 52.5424 87.2024 53.063 87.5909C53.3085 87.788 53.5892 87.9369 53.8901 88.0295C54.1901 88.13 54.4485 88.327 54.6247 88.5897C54.7562 88.7448 54.8545 88.9251 54.9136 89.1197C54.9727 89.3142 54.9913 89.5187 54.9682 89.7207C54.9048 90.2307 54.9313 90.7513 54.7304 91.2402C54.6881 91.3564 54.6855 91.4912 54.6696 91.6207C54.5375 92.6063 54.4239 93.592 54.1914 94.5591C54.1584 94.703 54.1425 94.8502 54.1438 94.9978C54.1488 95.2755 54.0891 95.5505 53.9694 95.8011C53.8495 96.0732 53.8065 96.373 53.8452 96.6679C53.8737 96.8685 53.9709 97.053 54.1203 97.1898C54.2697 97.3267 54.462 97.4075 54.6644 97.4183C54.7701 97.4183 54.8758 97.376 54.9762 97.3311C55.0739 97.2888 55.1585 97.2201 55.2668 97.1514C55.3382 97.236 55.4175 97.2941 55.4465 97.3708C55.5655 97.6773 55.8086 97.7169 56.0807 97.6773C56.2208 97.6562 56.3582 97.6007 56.493 97.561C56.6912 97.7275 56.8312 97.9389 57.1007 97.9468C58.023 97.9785 58.9426 98.042 59.8622 98.042C60.3854 98.042 60.6813 97.7249 60.6972 97.199C60.713 96.5384 60.7025 95.8725 60.6549 95.2118C60.6126 94.5909 60.1925 94.2156 59.5768 94.1707C59.4446 94.1628 59.3125 94.176 59.2147 94.0016L59.3125 93.4546C59.582 93.3542 59.8199 93.2617 60.063 93.1771C60.4594 93.0371 60.6523 92.7596 60.6602 92.3421L60.721 89.5226C60.721 89.3799 60.7368 89.2372 60.7474 89.0839C61.0618 88.9597 61.3552 88.8778 61.6696 88.8276C62.1188 88.7562 62.5681 88.6532 63.0226 88.5713C63.5484 88.4761 64.0716 88.3598 64.6001 88.3096C65.0229 88.2674 65.4352 88.1987 65.8421 88.0797C66.3178 87.9397 66.8066 87.8419 67.2929 87.7468C67.7157 87.6622 67.9006 87.7759 68.0645 88.1802C68.1411 88.3678 68.2045 88.5607 68.2494 88.7615C68.556 90.0299 68.9074 91.2904 69.0158 92.6011C69.0369 92.8494 69.1637 93.0027 69.3857 93.1031C69.5662 93.1769 69.7606 93.2106 69.9554 93.2019C70.1502 93.1933 70.3408 93.1424 70.5141 93.0529C70.8153 92.9208 71.0954 92.7358 71.3914 92.5852C71.4839 92.5376 71.6001 92.4742 71.6953 92.4901C72.1075 92.5614 72.4986 92.4372 72.9002 92.4002C73.3495 92.3606 73.6903 92.1148 74.0259 91.8559C74.1003 91.8 74.1604 91.7272 74.2013 91.6437C74.2422 91.5601 74.2627 91.468 74.2611 91.3749C74.2585 91.1926 74.2558 91.005 74.2083 90.8279C74.0973 90.3629 73.9519 89.9057 73.8357 89.4406ZM116.137 71.6619C116.057 71.8257 116.031 72.0134 115.984 72.1904C115.926 72.4798 115.819 72.757 115.666 73.0096C115.614 73.0863 115.573 73.1699 115.545 73.258C115.233 74.1696 114.752 75.002 114.287 75.8344C114.073 76.2202 113.835 76.5928 113.608 76.9707C113.563 77.05 113.486 77.1372 113.489 77.2164C113.507 77.552 113.251 77.7872 113.188 78.0938C113.145 78.3052 112.992 78.432 112.765 78.4769C112.361 78.5562 112.118 78.8786 111.837 79.1375C111.766 79.201 111.745 79.3331 111.732 79.4388C111.705 79.6555 111.584 79.7665 111.388 79.8167C111.101 79.894 110.843 80.056 110.648 80.2817C109.694 81.3678 108.495 82.113 107.2 82.7208C106.867 82.8793 106.537 83.0379 106.201 83.1911C106.085 83.244 105.963 83.3153 105.842 83.318C105.408 83.3338 105.02 83.5109 104.613 83.6245C104.15 83.7566 103.688 83.8755 103.199 83.7778C103.041 83.746 102.869 83.7778 102.705 83.7936C102.301 83.8359 101.902 83.9046 101.497 83.931C101.038 83.9649 100.578 83.9737 100.118 83.9574C99.7639 83.9389 99.5049 84.0288 99.3781 84.3802C99.3611 84.433 99.338 84.4835 99.3093 84.5309C99.1164 84.8533 98.8654 84.8691 98.6751 84.5573C98.5853 84.4014 98.5325 84.2191 98.4796 84.0447C98.4615 83.9637 98.4229 83.8888 98.3673 83.8272C98.3117 83.7656 98.2412 83.7195 98.1625 83.6932C97.9384 83.6128 97.7048 83.5621 97.4675 83.5426C96.8076 83.4808 96.1486 83.4086 95.4909 83.3259C95.2346 83.2995 94.9862 83.2625 94.7299 83.347C94.4762 83.4316 94.286 83.2942 94.2886 83.0299C94.2886 82.623 94.3203 82.216 94.4736 81.8355C94.685 81.307 94.9096 80.7785 95.1501 80.2606C95.4143 79.6977 95.6627 79.1243 96.03 78.6143C96.1176 78.4735 96.1609 78.3096 96.1542 78.144C96.1563 77.8107 96.2476 77.4841 96.4185 77.1979C96.717 76.6275 97.028 76.0636 97.3513 75.5067C97.6578 74.9835 97.9907 74.4762 98.3158 73.9662C98.3501 73.908 98.4056 73.8658 98.5272 73.7363C98.58 74.0877 98.6302 74.3229 98.6487 74.5581C98.7095 75.3059 99.0187 75.9058 99.6687 76.2969C100.181 76.6034 100.726 76.8095 101.339 76.8042C102.373 76.8139 103.398 76.6116 104.351 76.2096C104.536 76.1304 104.721 76.0379 104.885 75.9216C105.289 75.6309 105.691 75.3403 106.074 75.0232C106.497 74.6796 106.682 74.1908 106.735 73.6649C106.799 73.1417 106.748 72.6107 106.585 72.1094C106.422 71.608 106.151 71.1486 105.791 70.7635C105.593 70.5342 105.44 70.2686 105.342 69.9813C105.435 69.9284 105.506 69.8809 105.585 69.8439C105.887 69.7065 106.193 69.5849 106.489 69.4369C106.722 69.318 106.957 69.252 107.216 69.1938C107.734 69.0881 108.246 68.9296 108.748 68.7631C108.92 68.6955 109.104 68.6667 109.287 68.6785C109.837 68.7367 110.403 68.7261 110.931 68.8635C111.407 68.9903 111.874 68.9877 112.35 69.0088C112.645 69.0375 112.929 69.1324 113.182 69.2863C113.497 69.4554 113.817 69.5664 114.181 69.5506C114.282 69.5426 114.387 69.6034 114.49 69.6351C114.609 69.6748 114.723 69.7487 114.845 69.7593C115.056 69.7752 115.188 69.8809 115.273 70.0579C115.361 70.2414 115.498 70.3969 115.669 70.5071C115.775 70.5811 115.865 70.6736 115.957 70.7661C116.219 71.0224 116.309 71.3052 116.137 71.6619ZM128.926 63.42C128.654 63.4252 128.372 63.4041 128.107 63.4596C127.486 63.5917 126.863 63.5653 126.239 63.5151C125.797 63.482 125.353 63.5086 124.918 63.5944C123.906 63.806 122.869 63.8665 121.839 63.7741C121.345 63.7238 120.846 63.7291 120.349 63.7027C120.023 63.6657 119.693 63.7313 119.406 63.8903C119.086 63.6684 118.758 63.671 118.42 63.6736C117.334 63.6895 116.245 63.7001 115.159 63.6921C114.568 63.6909 113.978 63.6697 113.389 63.6287C112.12 63.5362 110.852 63.5019 109.581 63.486C109.287 63.4807 108.989 63.5124 108.698 63.4781C108.166 63.4116 107.625 63.4863 107.131 63.6948C106.906 63.7786 106.706 63.9166 106.547 64.0964C106.222 64.4717 105.879 64.8311 105.54 65.1957C105.503 65.236 105.461 65.2723 105.416 65.3041C105.258 65.423 105.107 65.4388 104.964 65.3041C104.821 65.1631 104.691 65.0092 104.576 64.8443C104.248 64.4056 103.783 64.1625 103.252 64.2946C102.45 64.5013 101.661 64.7527 100.887 65.0477C100.769 65.0968 100.665 65.1739 100.583 65.2723C100.405 65.4595 100.197 65.6149 99.9673 65.7321C99.6819 65.8986 99.4177 66.1021 99.1376 66.2739C98.6355 66.5804 98.1704 66.953 97.5521 67.019C97.4728 67.0296 97.3909 67.0983 97.3248 67.1512C97.2138 67.2463 97.1187 67.3626 97.0077 67.4603C96.8809 67.5766 96.7831 67.7061 96.7963 67.8884C96.8148 68.1077 96.725 68.2769 96.5955 68.4434C96.4502 68.631 96.3233 68.8397 96.1727 69.0247C96.0115 69.2229 95.8503 69.4316 95.6521 69.5902C95.3512 69.8355 95.0924 70.1283 94.8858 70.4569C94.611 70.8903 94.3309 71.329 94.0508 71.757C93.6544 72.3569 93.2316 72.9382 92.8669 73.5539C92.4891 74.1881 92.1614 74.8488 91.8258 75.5041C91.5219 76.096 91.2392 76.6959 90.9485 77.2904C90.8353 77.5026 90.8042 77.7491 90.8613 77.9828C90.9154 78.2344 90.9288 78.4932 90.9009 78.7491C90.8719 78.9975 90.8719 79.2115 91.0198 79.4309C91.2259 79.7374 91.1387 80.0333 90.9088 80.287C90.786 80.4231 90.6456 80.5422 90.4913 80.6411C90.1478 80.8552 89.7964 81.0507 89.4343 81.2621C89.1515 82.0962 88.9203 82.9469 88.742 83.8095C88.4778 85.0171 88.2135 86.2221 87.9572 87.4297C87.7088 88.5977 87.4657 89.7709 87.2252 90.9442C87.1979 91.0887 87.1891 91.2361 87.1988 91.3829C87.2252 91.9246 87.4815 92.2311 88.0074 92.3685C88.0602 92.3817 88.1131 92.3817 88.1659 92.3949C88.8477 92.5693 89.5242 92.7438 90.2007 92.9234C90.6129 93.0291 91.0198 93.1401 91.4506 93.1243C92.1112 93.1005 92.4679 92.7755 92.5181 92.1122C92.5974 90.9891 92.7375 89.874 92.9859 88.7747C93.1444 88.0771 93.1444 88.0692 93.9081 88.0639C94.0376 88.1643 94.1512 88.3017 94.2965 88.3572C94.7458 88.5422 95.2214 88.595 95.7076 88.5369C95.919 88.5105 96.1304 88.3731 96.3392 88.3863C96.5479 88.3995 96.7356 88.5765 96.947 88.6241C97.6129 88.7589 98.2761 88.9253 98.9632 88.8699C99.2591 88.8461 99.5445 88.8355 99.822 88.9967C99.9383 89.0654 100.107 89.0495 100.253 89.0654L100.62 89.1103C100.866 89.5622 100.982 90.0088 100.964 90.5056C100.908 92.313 100.934 94.1178 101.162 95.9174C101.207 96.2636 101.215 96.615 101.225 96.9665C101.238 97.3153 101.223 97.6667 101.236 98.0155C101.243 98.1983 101.273 98.3794 101.326 98.5546C101.358 98.6813 101.432 98.7935 101.535 98.8739C101.639 98.9542 101.766 98.998 101.896 98.9985C102.023 99.0065 102.147 98.98 102.256 98.9721C102.359 98.8241 102.433 98.6947 102.531 98.589C102.657 98.4463 102.827 98.4146 102.974 98.5361C103.363 98.8479 103.794 98.8321 104.235 98.729C105.059 98.544 105.881 98.3379 106.706 98.1424C106.811 98.1159 106.925 98.1054 107.031 98.079C107.12 98.0567 107.204 98.0142 107.274 97.9546C107.345 97.895 107.401 97.82 107.438 97.7354C107.616 97.3879 107.673 96.991 107.602 96.6071C107.464 95.92 107.311 95.2356 107.179 94.5486C107.126 94.2975 107.11 94.0412 107.065 93.7875C106.996 93.4097 106.914 93.0344 106.846 92.6883C106.634 92.5931 106.465 92.5297 106.309 92.4399C106.185 92.3659 106.177 92.2047 106.275 92.1043C106.325 92.0514 106.378 91.9933 106.441 91.9589C106.674 91.8374 106.714 91.6339 106.703 91.3987C106.695 91.2137 106.695 91.0288 106.719 90.8464C106.778 90.461 106.732 90.0668 106.587 89.7049C106.389 89.2424 106.534 88.8619 106.885 88.5713C107.266 88.2568 107.609 87.8948 108.035 87.6384C108.283 87.4905 108.479 87.2474 108.806 87.25C108.886 87.25 108.965 87.1628 109.044 87.1179C109.221 87.0201 109.393 86.9091 109.573 86.8272C110.574 86.3542 111.571 85.8865 112.427 85.1704C112.768 84.8902 113.19 84.959 113.441 85.3078C113.494 85.3818 113.539 85.4663 113.584 85.5456C114.118 86.5154 114.586 87.5142 114.948 88.5633C115.067 88.9121 115.222 89.2504 115.355 89.5939C115.402 89.7239 115.481 89.8404 115.584 89.9333C115.686 90.0263 115.81 90.093 115.944 90.1277C116.031 90.1541 116.124 90.1726 116.205 90.2096C116.388 90.2968 116.575 90.3761 116.739 90.4897C116.834 90.5496 116.907 90.6397 116.945 90.7456C116.982 90.8515 116.984 90.967 116.948 91.0737C116.914 91.1979 116.861 91.3168 116.832 91.4436C116.75 91.8004 116.647 92.1598 116.689 92.5324C116.723 92.8759 116.919 93.0635 117.265 93.082C117.375 93.0927 117.486 93.0847 117.593 93.0582C117.963 92.9525 118.33 92.831 118.697 92.7147C118.979 92.6219 119.239 92.4741 119.462 92.2799C119.686 92.0858 119.869 91.8491 120 91.5837C120.085 91.4199 120.153 91.2481 120.251 91.0922C120.379 90.9098 120.437 90.6876 120.415 90.4659C120.4 90.3189 120.421 90.1704 120.475 90.0329C120.529 89.8955 120.615 89.773 120.727 89.6758C120.938 89.4671 121.171 89.4591 121.44 89.5014C121.657 89.5358 121.884 89.5305 122.074 89.3825C122.217 89.2795 122.335 89.1471 122.422 88.9944C122.508 88.8417 122.561 88.6722 122.577 88.4973C122.608 88.1265 122.505 87.7568 122.286 87.4561C122.148 87.2579 121.993 87.0756 121.858 86.8774C121.678 86.6184 121.488 86.3753 121.179 86.2379C121.147 85.8838 120.949 85.6249 120.74 85.3659C120.427 84.9781 120.118 84.586 119.815 84.19C119.657 83.9839 119.498 83.7936 119.213 83.7461C119.036 83.7196 118.901 83.5901 118.917 83.4025C118.943 83.0749 118.779 82.8423 118.6 82.6045C118.325 82.2347 118.061 81.8576 117.807 81.4735C117.709 81.3229 117.601 81.13 117.619 80.9714C117.68 80.4641 117.741 79.9673 118.079 79.5207C118.489 78.979 118.814 78.3738 119.173 77.7951C119.305 77.5864 119.403 77.3565 119.337 77.116C119.258 76.8253 119.424 76.6219 119.535 76.392C119.649 76.1542 119.799 75.948 120.069 75.8661C120.246 75.8133 120.338 75.6864 120.418 75.5358L120.624 75.1447C121.015 74.4127 121.406 73.6834 121.786 72.9515C121.962 72.6223 122.26 72.3754 122.616 72.2644C123.134 72.0689 123.671 71.942 124.21 71.8257C124.424 71.7746 124.647 71.771 124.862 71.8152C125.449 71.9473 126.036 71.8812 126.62 71.7887C126.721 71.7754 126.818 71.7401 126.904 71.6853C126.991 71.6305 127.064 71.5576 127.119 71.4717C127.23 71.3032 127.319 71.1211 127.383 70.9299C127.592 70.2984 127.777 69.6615 127.965 69.0273C128.12 68.5147 128.276 68.0047 128.414 67.4894C128.567 66.9186 128.694 66.3426 128.845 65.7744C128.963 65.3278 129.117 64.8918 129.222 64.4452C129.275 64.218 129.275 63.9696 129.265 63.7344C129.257 63.5627 129.082 63.4173 128.926 63.42Z" fill="#B5B398"/>
</svg>
